<svg width="78" height="78" viewBox="0 0 78 78" fill="none" xmlns="http://www.w3.org/2000/svg">
<g clip-path="url(#clip0_78_15)">
<path d="M29.2598 26.8125C29.2598 28.7519 28.4893 30.6119 27.118 31.9832C25.7466 33.3546 23.8867 34.125 21.9473 34.125C20.0079 34.125 18.1479 33.3546 16.7765 31.9832C15.4052 30.6119 14.6348 28.7519 14.6348 26.8125C14.6348 24.8731 15.4052 23.0131 16.7765 21.6418C18.1479 20.2704 20.0079 19.5 21.9473 19.5C23.8867 19.5 25.7466 20.2704 27.118 21.6418C28.4893 23.0131 29.2598 24.8731 29.2598 26.8125Z" fill="#3D6DA6"/>
<path d="M9.75977 4.875C7.1739 4.875 4.69395 5.90223 2.86547 7.73071C1.03699 9.55919 0.00976563 12.0391 0.00976562 14.625V63.375C0.00976563 65.9609 1.03699 68.4408 2.86547 70.2693C4.69395 72.0978 7.1739 73.125 9.75977 73.125H68.2598C70.8456 73.125 73.3256 72.0978 75.1541 70.2693C76.9825 68.4408 78.0098 65.9609 78.0098 63.375V14.625C78.0098 12.0391 76.9825 9.55919 75.1541 7.73071C73.3256 5.90223 70.8456 4.875 68.2598 4.875H9.75977ZM68.2598 9.75C69.5527 9.75 70.7927 10.2636 71.7069 11.1779C72.6211 12.0921 73.1348 13.3321 73.1348 14.625V46.3125L54.7219 36.8209C54.2647 36.5919 53.7471 36.5124 53.2423 36.5938C52.7375 36.6751 52.2711 36.9132 51.909 37.2743L33.8228 55.3605L20.8553 46.722C20.3871 46.4103 19.8255 46.2701 19.2657 46.3252C18.706 46.3803 18.1825 46.6273 17.784 47.0243L4.88477 58.5V14.625C4.88477 13.3321 5.39838 12.0921 6.31262 11.1779C7.22686 10.2636 8.46684 9.75 9.75977 9.75H68.2598Z" fill="#3D6DA6"/>
</g>
<defs>
<clipPath id="clip0_78_15">
<rect width="78" height="78" fill="white"/>
</clipPath>
</defs>
</svg>
