<svg width="451" height="451" viewBox="0 0 451 451" fill="none" xmlns="http://www.w3.org/2000/svg">
<path d="M363.619 188.668C357.307 156.68 340.084 127.875 314.893 107.173C289.702 86.4723 258.106 75.1593 225.5 75.1666C171.192 75.1666 124.025 105.985 100.535 151.085C72.9161 154.07 47.3739 167.156 28.8168 187.829C10.2597 208.502 -0.00322656 235.303 7.60926e-07 263.083C7.60926e-07 325.284 50.5496 375.833 112.75 375.833H357.042C408.907 375.833 451 333.74 451 281.875C451 232.265 412.477 192.051 363.619 188.668ZM319.458 244.292L232.077 331.673C228.319 335.431 222.493 335.431 218.735 331.673L131.542 244.292H187.917V169.125H263.083V244.292H319.458Z" fill="#A3ADBA"/>
<rect x="131" y="167" width="189" height="168" fill="#A3ADBA"/>
<path d="M236 182C236 176.477 231.523 172 226 172C220.477 172 216 176.477 216 182L236 182ZM218.929 297.071C222.834 300.976 229.166 300.976 233.071 297.071L296.711 233.431C300.616 229.526 300.616 223.195 296.711 219.289C292.805 215.384 286.474 215.384 282.569 219.289L226 275.858L169.431 219.289C165.526 215.384 159.195 215.384 155.289 219.289C151.384 223.195 151.384 229.526 155.289 233.431L218.929 297.071ZM216 182L216 290L236 290L236 182L216 182Z" fill="#183153"/>
</svg>
