<svg width="102" height="102" viewBox="0 0 102 102" fill="none" xmlns="http://www.w3.org/2000/svg">
<path d="M28.6875 12.75C24.4606 12.75 20.4068 14.4291 17.418 17.418C14.4291 20.4068 12.75 24.4606 12.75 28.6875V35.0625C12.75 35.9079 13.0858 36.7186 13.6836 37.3164C14.2814 37.9142 15.0921 38.25 15.9375 38.25C16.7829 38.25 17.5936 37.9142 18.1914 37.3164C18.7892 36.7186 19.125 35.9079 19.125 35.0625V28.6875C19.125 26.1514 20.1325 23.7191 21.9258 21.9258C23.7191 20.1325 26.1514 19.125 28.6875 19.125H35.0625C35.9079 19.125 36.7186 18.7892 37.3164 18.1914C37.9142 17.5936 38.25 16.7829 38.25 15.9375C38.25 15.0921 37.9142 14.2814 37.3164 13.6836C36.7186 13.0858 35.9079 12.75 35.0625 12.75H28.6875ZM66.9375 12.75C66.0921 12.75 65.2814 13.0858 64.6836 13.6836C64.0858 14.2814 63.75 15.0921 63.75 15.9375C63.75 16.7829 64.0858 17.5936 64.6836 18.1914C65.2814 18.7892 66.0921 19.125 66.9375 19.125H73.3125C75.8486 19.125 78.2809 20.1325 80.0742 21.9258C81.8675 23.7191 82.875 26.1514 82.875 28.6875V35.0625C82.875 35.9079 83.2108 36.7186 83.8086 37.3164C84.4064 37.9142 85.2171 38.25 86.0625 38.25C86.9079 38.25 87.7186 37.9142 88.3164 37.3164C88.9142 36.7186 89.25 35.9079 89.25 35.0625V28.6875C89.25 24.4606 87.5709 20.4068 84.582 17.418C81.5932 14.4291 77.5394 12.75 73.3125 12.75H66.9375ZM19.125 66.9375C19.125 66.0921 18.7892 65.2814 18.1914 64.6836C17.5936 64.0858 16.7829 63.75 15.9375 63.75C15.0921 63.75 14.2814 64.0858 13.6836 64.6836C13.0858 65.2814 12.75 66.0921 12.75 66.9375V73.3125C12.75 77.5394 14.4291 81.5932 17.418 84.582C20.4068 87.5709 24.4606 89.25 28.6875 89.25H35.0625C35.9079 89.25 36.7186 88.9142 37.3164 88.3164C37.9142 87.7186 38.25 86.9079 38.25 86.0625C38.25 85.2171 37.9142 84.4064 37.3164 83.8086C36.7186 83.2108 35.9079 82.875 35.0625 82.875H28.6875C26.1514 82.875 23.7191 81.8675 21.9258 80.0742C20.1325 78.2809 19.125 75.8486 19.125 73.3125V66.9375ZM89.25 66.9375C89.25 66.0921 88.9142 65.2814 88.3164 64.6836C87.7186 64.0858 86.9079 63.75 86.0625 63.75C85.2171 63.75 84.4064 64.0858 83.8086 64.6836C83.2108 65.2814 82.875 66.0921 82.875 66.9375V73.3125C82.875 75.8486 81.8675 78.2809 80.0742 80.0742C78.2809 81.8675 75.8486 82.875 73.3125 82.875H66.9375C66.0921 82.875 65.2814 83.2108 64.6836 83.8086C64.0858 84.4064 63.75 85.2171 63.75 86.0625C63.75 86.9079 64.0858 87.7186 64.6836 88.3164C65.2814 88.9142 66.0921 89.25 66.9375 89.25H73.3125C77.5394 89.25 81.5932 87.5709 84.582 84.582C87.5709 81.5932 89.25 77.5394 89.25 73.3125V66.9375ZM28.6875 63.75V47.0794C28.6875 45.3886 29.3592 43.7671 30.5547 42.5716C31.7502 41.376 33.3717 40.7044 35.0625 40.7044H39.8438L43.5413 34.8394C44.1175 33.9293 44.915 33.1801 45.8593 32.6617C46.8035 32.1434 47.8637 31.8727 48.9409 31.875H53.0719C54.1475 31.8755 55.2055 32.1482 56.1474 32.6676C57.0892 33.187 57.8844 33.9363 58.4588 34.8458L62.1626 40.7044H66.9439C68.6346 40.7044 70.2561 41.376 71.4517 42.5716C72.6472 43.7671 73.3189 45.3886 73.3189 47.0794V63.75C73.3189 65.4408 72.6472 67.0623 71.4517 68.2578C70.2561 69.4534 68.6346 70.125 66.9439 70.125H35.0689C33.3781 70.125 31.7566 69.4534 30.5611 68.2578C29.3655 67.0623 28.6939 65.4408 28.6939 63.75H28.6875ZM51 60.5625C52.6908 60.5625 54.3123 59.8909 55.5078 58.6953C56.7034 57.4998 57.375 55.8783 57.375 54.1875C57.375 52.4967 56.7034 50.8752 55.5078 49.6797C54.3123 48.4841 52.6908 47.8125 51 47.8125C49.3092 47.8125 47.6877 48.4841 46.4922 49.6797C45.2966 50.8752 44.625 52.4967 44.625 54.1875C44.625 55.8783 45.2966 57.4998 46.4922 58.6953C47.6877 59.8909 49.3092 60.5625 51 60.5625Z" fill="#3D6DA6"/>
</svg>
